<svg id="Capa_1" data-name="Capa 1" xmlns="http://www.w3.org/2000/svg" viewBox="0 0 51.98 51.99"><defs><style>.cls-1{stroke:#1d1d1b;stroke-miterlimit:10;}.cls-1,.cls-2{fill-rule:evenodd;}</style></defs><title>mina</title><path class="cls-1" d="M83.5,82.72a17.15,17.15,0,0,1-7.39-1.58.83.83,0,0,1-.46-.55,8.39,8.39,0,0,0-3-5.61,8.51,8.51,0,0,0-4.26-2.41,1.67,1.67,0,0,0-.29-.06c-.86.16-1.17-.36-1.44-1.07A18.25,18.25,0,0,1,67,57.09a.77.77,0,0,1,.52-.42,7.08,7.08,0,0,0,4.11-1.61,9.73,9.73,0,0,0,3.92-5.58.71.71,0,0,0,.06-.23c-.19-1,.52-1.31,1.29-1.6A18.22,18.22,0,0,1,91,48c.28.12.49.25.49.62a7.44,7.44,0,0,0,2.08,4.64,9.47,9.47,0,0,0,5.16,3.34.49.49,0,0,0,.23,0c.92-.17,1.2.42,1.47,1.13A18.19,18.19,0,0,1,100.12,72a.84.84,0,0,1-.56.47c-2.88.23-4.84,1.92-6.51,4.05a7.06,7.06,0,0,0-1.62,4.11c0,.18-.24.43-.43.51A17.18,17.18,0,0,1,83.5,82.72Zm5.36-18.13a5.32,5.32,0,1,0-5.38,5.31A5.37,5.37,0,0,0,88.86,64.59Z" transform="translate(-57.56 -38.58)"/><path class="cls-1" d="M93.74,82.84c0-3.13,4.56-7.94,8.07-8.09.3,1.19.6,2.4.9,3.61.48,1.88,1,3.75,1.43,5.63.25,1-.12,1.4-1.14,1.18l-.66-.17Z" transform="translate(-57.56 -38.58)"/><path class="cls-1" d="M101.82,54.38c-3.32-.07-8-4.76-8.08-8.08l4.67-1.17c1.52-.39,3-.79,4.57-1.16,1-.23,1.4.11,1.18,1C103.41,48.12,102.61,51.23,101.82,54.38Z" transform="translate(-57.56 -38.58)"/><path class="cls-1" d="M73.35,82.84l-9.2,2.31C63.08,85.42,62.7,85,63,84c.76-3,1.53-6.11,2.29-9.16C68,74.48,73.29,79.21,73.35,82.84Z" transform="translate(-57.56 -38.58)"/><path class="cls-1" d="M73.35,46.3c0,3.46-5.07,8.2-8.08,8-.78-3.1-1.58-6.22-2.34-9.34-.22-.9.18-1.27,1.1-1C67.13,44.72,70.22,45.51,73.35,46.3Z" transform="translate(-57.56 -38.58)"/><path class="cls-1" d="M105.49,61.75c1.1.76,2.2,1.49,3.25,2.28a.65.65,0,0,1,0,1.11c-1,.77-2.12,1.49-3.22,2.26Z" transform="translate(-57.56 -38.58)"/><path class="cls-1" d="M61.6,67.39c-1.09-.75-2.13-1.44-3.15-2.17a.74.74,0,0,1,0-1.31c1-.73,2.06-1.42,3.13-2.15Z" transform="translate(-57.56 -38.58)"/><path class="cls-1" d="M80.73,86.53h5.62c-.75,1.08-1.47,2.18-2.26,3.24a.68.68,0,0,1-1.16-.07C82.18,88.67,81.47,87.61,80.73,86.53Z" transform="translate(-57.56 -38.58)"/><path class="cls-1" d="M86.35,42.61H80.73c.76-1.09,1.49-2.22,2.31-3.27.33-.43.84-.3,1.16.15C84.92,40.51,85.62,41.55,86.35,42.61Z" transform="translate(-57.56 -38.58)"/><path class="cls-2" d="M80.93,64.57a2.61,2.61,0,1,1,2.6,2.61A2.58,2.58,0,0,1,80.93,64.57Z" transform="translate(-57.56 -38.58)"/></svg>